HIERARCHY
ROOT hip
{
  OFFSET 0.00112043 5.09927 -9.65472
  CHANNELS 6 Xposition Yposition Zposition Zrotation Xrotation Yrotation
  JOINT abdomen
  {
    OFFSET 0 -1.186 -1.5018
    CHANNELS 3 Zrotation Xrotation Yrotation
    JOINT abdomen2
    {
      OFFSET 0 9.964 0.2134
      CHANNELS 3 Zrotation Xrotation Yrotation
      JOINT chest
      {
        OFFSET 0 13.134 -3.2573
        CHANNELS 3 Zrotation Xrotation Yrotation
        JOINT neck
        {
          OFFSET 0 20.686 -1.6905
          CHANNELS 3 Zrotation Xrotation Yrotation
          JOINT head
          {
            OFFSET 0 7.238 -0.1237
            CHANNELS 3 Zrotation Xrotation Yrotation
            End Site
            {
              OFFSET 0 0 0
            }
          }
        }
        JOINT lCollar
        {
          OFFSET 1.7069 20.075 5.0056
          CHANNELS 3 Zrotation Xrotation Yrotation
          JOINT lShldr
          {
            OFFSET 13.6458 -0.047 -4.849
            CHANNELS 3 Zrotation Xrotation Yrotation
            JOINT lForeArm
            {
              OFFSET 28.3255 -0.9759 2.2888
              CHANNELS 3 Zrotation Xrotation Yrotation
              JOINT lHand
              {
                OFFSET 22.1583 -0.53 10.8316
                CHANNELS 3 Zrotation Xrotation Yrotation
                JOINT lThumb1
                {
                  OFFSET 0.786 0.112 2.5817
                  CHANNELS 3 Zrotation Xrotation Yrotation
                  JOINT lThumb2
                  {
                    OFFSET 0.3601 -0.878 4.2331
                    CHANNELS 3 Zrotation Xrotation Yrotation
                    JOINT lThumb2_End
                    {
                      OFFSET 1.8127 -1.216 2.2227
                      CHANNELS 3 Zrotation Xrotation Yrotation
                      End Site
                      {
                        OFFSET 0.0181 -0.0122 0.0222
                      }
                    }
                  }
                }
                JOINT lCarpal1
                {
                  OFFSET 0.9571 1.114 1.7695
                  CHANNELS 3 Zrotation Xrotation Yrotation
                  JOINT lIndex1
                  {
                    OFFSET 4.1246 0.487 4.1451
                    CHANNELS 3 Zrotation Xrotation Yrotation
                    JOINT lIndex2
                    {
                      OFFSET 3.4052 -1.454 2.7682
                      CHANNELS 3 Zrotation Xrotation Yrotation
                      JOINT lIndex2_End
                      {
                        OFFSET 1.4531 -1.795 1.2713
                        CHANNELS 3 Zrotation Xrotation Yrotation
                        End Site
                        {
                          OFFSET 0.0145 -0.0179 0.0127
                        }
                      }
                    }
                  }
                  JOINT lMid1
                  {
                    OFFSET 5.6954 0.21 2.1184
                    CHANNELS 3 Zrotation Xrotation Yrotation
                    JOINT lMid2
                    {
                      OFFSET 3.9766 -1.54 2.3863
                      CHANNELS 3 Zrotation Xrotation Yrotation
                      JOINT lMid2_End
                      {
                        OFFSET 1.4042 -1.926 1.125
                        CHANNELS 3 Zrotation Xrotation Yrotation
                        End Site
                        {
                          OFFSET 0.014 -0.0193 0.0113
                        }
                      }
                    }
                  }
                }
                JOINT lCarpal2
                {
                  OFFSET 2.0956 0.66 -0.3894
                  CHANNELS 3 Zrotation Xrotation Yrotation
                  JOINT lRing1
                  {
                    OFFSET 5.0395 -0.09 2.4971
                    CHANNELS 3 Zrotation Xrotation Yrotation
                    JOINT lRing2
                    {
                      OFFSET 3.7921 -1.552 1.4806
                      CHANNELS 3 Zrotation Xrotation Yrotation
                      JOINT lRing2_End
                      {
                        OFFSET 1.4655 -1.808 0.9609
                        CHANNELS 3 Zrotation Xrotation Yrotation
                        End Site
                        {
                          OFFSET 0.0147 -0.0181 0.0096
                        }
                      }
                    }
                  }
                  JOINT lPinky1
                  {
                    OFFSET 4.9141 -1.269 0.3591
                    CHANNELS 3 Zrotation Xrotation Yrotation
                    JOINT lPinky2
                    {
                      OFFSET 3.1477 -1.685 0.8462
                      CHANNELS 3 Zrotation Xrotation Yrotation
                      JOINT lPinky2_End
                      {
                        OFFSET 0.8055 -1.585 0.7955
                        CHANNELS 3 Zrotation Xrotation Yrotation
                        End Site
                        {
                          OFFSET 0.0081 -0.0158 0.008
                        }
                      }
                    }
                  }
                }
              }
            }
          }
        }
        JOINT rCollar
        {
          OFFSET -1.7069 20.075 5.0056
          CHANNELS 3 Zrotation Xrotation Yrotation
          JOINT rShldr
          {
            OFFSET -13.6458 -0.047 -4.849
            CHANNELS 3 Zrotation Xrotation Yrotation
            JOINT rForeArm
            {
              OFFSET -28.3255 -0.9759 2.2888
              CHANNELS 3 Zrotation Xrotation Yrotation
              JOINT rHand
              {
                OFFSET -22.1583 -0.53 10.8316
                CHANNELS 3 Zrotation Xrotation Yrotation
                JOINT rThumb1
                {
                  OFFSET -0.786 0.112 2.5817
                  CHANNELS 3 Zrotation Xrotation Yrotation
                  JOINT rThumb2
                  {
                    OFFSET -0.3601 -0.878 4.2331
                    CHANNELS 3 Zrotation Xrotation Yrotation
                    JOINT rThumb2_End
                    {
                      OFFSET -1.8127 -1.216 2.2227
                      CHANNELS 3 Zrotation Xrotation Yrotation
                      End Site
                      {
                        OFFSET -0.0181 -0.0122 0.0222
                      }
                    }
                  }
                }
                JOINT rCarpal1
                {
                  OFFSET -0.9571 1.114 1.7695
                  CHANNELS 3 Zrotation Xrotation Yrotation
                  JOINT rIndex1
                  {
                    OFFSET -4.1246 0.487 4.1451
                    CHANNELS 3 Zrotation Xrotation Yrotation
                    JOINT rIndex2
                    {
                      OFFSET -3.4052 -1.454 2.7682
                      CHANNELS 3 Zrotation Xrotation Yrotation
                      JOINT rIndex2_End
                      {
                        OFFSET -1.4531 -1.795 1.2713
                        CHANNELS 3 Zrotation Xrotation Yrotation
                        End Site
                        {
                          OFFSET -0.0145 -0.018 0.0127
                        }
                      }
                    }
                  }
                  JOINT rMid1
                  {
                    OFFSET -5.6954 0.21 2.1184
                    CHANNELS 3 Zrotation Xrotation Yrotation
                    JOINT rMid2
                    {
                      OFFSET -3.9766 -1.54 2.3863
                      CHANNELS 3 Zrotation Xrotation Yrotation
                      JOINT rMid2_End
                      {
                        OFFSET -1.4042 -1.926 1.125
                        CHANNELS 3 Zrotation Xrotation Yrotation
                        End Site
                        {
                          OFFSET -0.014 -0.0193 0.0113
                        }
                      }
                    }
                  }
                }
                JOINT rCarpal2
                {
                  OFFSET -2.0956 0.66 -0.3894
                  CHANNELS 3 Zrotation Xrotation Yrotation
                  JOINT rRing1
                  {
                    OFFSET -5.0395 -0.09 2.4971
                    CHANNELS 3 Zrotation Xrotation Yrotation
                    JOINT rRing2
                    {
                      OFFSET -3.7921 -1.552 1.4806
                      CHANNELS 3 Zrotation Xrotation Yrotation
                      JOINT rRing2_End
                      {
                        OFFSET -1.4655 -1.808 0.9609
                        CHANNELS 3 Zrotation Xrotation Yrotation
                        End Site
                        {
                          OFFSET -0.0147 -0.0181 0.0096
                        }
                      }
                    }
                  }
                  JOINT rPinky1
                  {
                    OFFSET -4.9141 -1.269 0.3592
                    CHANNELS 3 Zrotation Xrotation Yrotation
                    JOINT rPinky2
                    {
                      OFFSET -3.1477 -1.685 0.8462
                      CHANNELS 3 Zrotation Xrotation Yrotation
                      JOINT rPinky2_End
                      {
                        OFFSET -0.8055 -1.585 0.7955
                        CHANNELS 3 Zrotation Xrotation Yrotation
                        End Site
                        {
                          OFFSET -0.0081 -0.0158 0.008
                        }
                      }
                    }
                  }
                }
              }
            }
          }
        }
      }
    }
  }
  JOINT lThigh
  {
    OFFSET 8.367 -8.2066 0.5982
    CHANNELS 3 Zrotation Xrotation Yrotation
    JOINT lShin
    {
      OFFSET 2.1923 -43.463 -0.4932
      CHANNELS 3 Zrotation Xrotation Yrotation
      JOINT lFoot
      {
        OFFSET 0.7333 -45.8593 -2.6451
        CHANNELS 3 Zrotation Xrotation Yrotation
        End Site
        {
          OFFSET 2.6618 -4.2699 12.3931
        }
      }
    }
  }
  JOINT rThigh
  {
    OFFSET -8.367 -8.2066 0.5982
    CHANNELS 3 Zrotation Xrotation Yrotation
    JOINT rShin
    {
      OFFSET -2.1923 -43.463 -0.4931
      CHANNELS 3 Zrotation Xrotation Yrotation
      JOINT rFoot
      {
        OFFSET -0.7333 -45.8593 -2.6451
        CHANNELS 3 Zrotation Xrotation Yrotation
        End Site
        {
          OFFSET -2.6618 -4.2699 12.3931
        }
      }
    }
  }
}
MOTION
Frames:	6
Frame Time:	0.0333333
-38.1747 19.1335 22.1157 5.64008e-015 60.9968 180 -0.584706 3.98347 -0.0446871 -1.17055 7.96721 -0.0486843 -1.17055 7.96722 -0.0486837 -8.74847e-005 -29.4005 -4.4605e-005 -2.36268e-007 -20.0017 2.39877e-007 -5.7103 19.4736 -27.8481 -42.9977 -7.39257 49.9105 -1.06591 -6.99651 -62.7675 -11.7468 -0.710476 -8.04352 -2.18663e-015 4.96962e-016 -1.27222e-014 -1.90522e-007 -1.21737e-007 2.76172e-006 4.77083e-015 4.27387e-015 -6.36111e-015 -5.36719e-015 2.18663e-015 -6.36111e-015 3.57812e-015 -3.97569e-016 -9.54166e-015 -1.90522e-007 -1.21737e-007 2.76172e-006 4.77083e-015 4.77083e-015 -3.18055e-015 3.57812e-015 -3.97569e-016 -9.54166e-015 -1.90522e-007 -1.21737e-007 2.76172e-006 4.77083e-015 4.77083e-015 -3.18055e-015 -5.36719e-015 2.18663e-015 -6.36111e-015 3.57812e-015 -3.97569e-016 -9.54166e-015 -1.90522e-007 -1.21737e-007 2.76172e-006 4.77083e-015 4.77083e-015 -3.18055e-015 3.57812e-015 -3.97569e-016 -9.54166e-015 -1.90522e-007 -1.21737e-007 2.76172e-006 4.77083e-015 4.77083e-015 -3.18055e-015 4.58841 19.3155 28.2079 43.6011 -7.8783 -49.5524 0.13962 -8.48226 61.5873 11.5877 -1.02329 7.94734 3.18055e-015 -2.38542e-015 -0 7.95139e-016 5.96354e-015 -0 -3.18055e-015 5.56597e-015 3.18055e-015 3.18055e-015 -1.98785e-015 -0 4.41391e-031 3.97569e-015 -6.36111e-015 -7.95139e-015 5.56597e-015 6.36111e-015 -5.56597e-015 5.96354e-015 -3.18055e-015 4.41391e-031 3.97569e-015 -6.36111e-015 -7.95139e-015 5.56597e-015 6.36111e-015 -5.56597e-015 5.96354e-015 -3.18055e-015 3.18055e-015 -1.98785e-015 -0 4.41391e-031 3.97569e-015 -6.36111e-015 -7.95139e-015 5.56597e-015 6.36111e-015 -5.56597e-015 5.96354e-015 -3.18055e-015 4.41391e-031 3.97569e-015 -6.36111e-015 -7.95139e-015 5.56597e-015 6.36111e-015 -5.56597e-015 5.96354e-015 -3.18055e-015 30.8807 -22.8586 53.0565 73.1528 47.5382 -94.943 -18.4518 17.3913 35.5714 -31.7843 -22.3846 -52.7344 -71.2086 47.3101 93.4244 19.3125 18.3763 -34.9886 
-38.175 19.1325 22.117 5.64009e-015 60.9968 180 -0.588228 3.885 -0.0426237 -1.17763 7.77025 -0.0453176 -1.17763 7.77026 -0.0453175 -0.00013395 -28.6444 -6.57949e-005 -2.12836e-007 -20.0017 -6.89991e-007 -5.93554 19.6629 -27.4718 -42.8881 -7.31759 49.8435 -1.06594 -6.99652 -62.7675 -11.9087 -0.367531 -7.88077 -7.35503e-015 -4.67144e-015 -0 -5.96354e-015 1.88845e-015 9.54166e-015 -7.95139e-016 8.94531e-016 6.36111e-015 -5.76476e-015 -6.65929e-015 -3.18055e-015 -2.38542e-015 1.07344e-014 3.18055e-015 -6.16232e-015 3.97569e-016 3.18055e-015 -5.56597e-015 -6.95746e-016 -0 -2.38542e-015 1.07344e-014 3.18055e-015 -6.16232e-015 3.97569e-016 3.18055e-015 -5.56597e-015 -6.95746e-016 -0 -5.76476e-015 -6.65929e-015 -3.18055e-015 -2.38542e-015 1.07344e-014 3.18055e-015 -6.16232e-015 3.97569e-016 3.18055e-015 -5.56597e-015 -6.95746e-016 -0 -2.38542e-015 1.07344e-014 3.18055e-015 -6.16232e-015 3.97569e-016 3.18055e-015 -5.56597e-015 -6.95746e-016 -0 4.86915 19.517 27.8157 43.4679 -7.78579 -49.4662 0.139623 -8.48225 61.5873 11.7568 -0.666761 7.79582 1.59028e-015 3.97569e-016 -6.36111e-015 7.95139e-016 -3.97569e-015 -6.36111e-015 -3.97569e-015 6.36111e-015 -3.18055e-015 2.20695e-032 3.97569e-016 -3.18055e-015 -2.38542e-015 -5.96354e-015 -9.54166e-015 -5.56597e-015 2.38542e-015 -6.36111e-015 -3.97569e-015 2.38542e-015 -0 -2.38542e-015 -5.96354e-015 -9.54166e-015 -5.56597e-015 2.38542e-015 -6.36111e-015 -3.97569e-015 2.38542e-015 -0 2.20695e-032 3.97569e-016 -3.18055e-015 -2.38542e-015 -5.96354e-015 -9.54166e-015 -5.56597e-015 2.38542e-015 -6.36111e-015 -3.97569e-015 2.38542e-015 -0 -2.38542e-015 -5.96354e-015 -9.54166e-015 -5.56597e-015 2.38542e-015 -6.36111e-015 -3.97569e-015 2.38542e-015 -0 31.6731 -22.8108 54.5994 73.4677 47.1652 -96.4954 -18.0338 17.6029 36.0733 -32.5744 -22.3321 -54.2305 -71.489 46.9912 94.8128 18.8482 18.6158 -35.3312 
-38.1753 19.1317 22.118 5.64009e-015 60.9968 180 -0.591364 3.79625 -0.0407588 -1.18393 7.59274 -0.0422866 -1.18393 7.59274 -0.0422863 -4.5244e-006 -27.96 -1.16292e-006 1.61608e-007 -20.0017 -2.68361e-007 -6.13961 19.832 -27.132 -42.7893 -7.25024 49.7831 -1.06592 -6.99652 -62.7675 -12.0553 -0.0592798 -7.73335 -6.75868e-015 1.88845e-015 -1.27222e-014 -2.38542e-015 2.48481e-015 -3.18055e-015 -2.5842e-015 9.93923e-015 -6.36111e-015 -1.98785e-015 6.95746e-016 -6.36111e-015 -6.75868e-015 -3.97569e-016 1.27222e-014 -6.36111e-015 -9.14409e-015 -3.18055e-015 -7.95139e-016 -1.39149e-015 -3.18055e-015 -6.75868e-015 -3.97569e-016 1.27222e-014 -6.36111e-015 -9.14409e-015 -3.18055e-015 -7.95139e-016 -1.39149e-015 -3.18055e-015 -1.98785e-015 6.95746e-016 -6.36111e-015 -6.75868e-015 -3.97569e-016 1.27222e-014 -6.36111e-015 -9.14409e-015 -3.18055e-015 -7.95139e-016 -1.39149e-015 -3.18055e-015 -6.75868e-015 -3.97569e-016 1.27222e-014 -6.36111e-015 -9.14409e-015 -3.18055e-015 -7.95139e-016 -1.39149e-015 -3.18055e-015 5.12338 19.6967 27.4613 43.348 -7.70272 -49.3883 0.139633 -8.48225 61.5873 11.9098 -0.346272 7.65842 -1.59028e-015 -3.18055e-015 -0 -3.18055e-015 3.97569e-015 6.36111e-015 -1.59028e-015 -2.38542e-015 -0 -1.59028e-015 -5.1684e-015 -0 -1.59028e-015 -3.97569e-016 -0 -2.38542e-015 -6.75868e-015 -0 7.95139e-016 0 -0 -1.59028e-015 -3.97569e-016 -0 -2.38542e-015 -6.75868e-015 -0 7.95139e-016 0 -0 -1.59028e-015 -5.1684e-015 -0 -1.59028e-015 -3.97569e-016 -0 -2.38542e-015 -6.75868e-015 -0 7.95139e-016 0 -0 -1.59028e-015 -3.97569e-016 -0 -2.38542e-015 -6.75868e-015 -0 7.95139e-016 0 -0 32.3865 -22.7509 55.9901 73.7396 46.8272 -97.8886 -17.6584 17.7942 36.5234 -33.2857 -22.2684 -55.579 -71.7325 46.7024 96.0595 18.4306 18.8318 -35.6373 
-38.1755 19.131 22.119 5.64009e-015 60.9968 180 -0.594473 3.70743 -0.0388843 -1.19017 7.41507 -0.0392486 -1.19017 7.41507 -0.039249 -4.09858e-006 -27.2762 -1.26621e-007 5.8808e-007 -20.0017 -1.64458e-007 -6.345 20 -26.7912 -42.6905 -7.18299 49.7226 -1.06593 -6.99652 -62.7675 -12.2027 0.248626 -7.58511 2.5842e-015 -4.27387e-015 6.36111e-015 3.77691e-015 -8.44835e-015 -0 2.5842e-015 -4.07509e-015 -3.18055e-015 -3.77691e-015 -1.88845e-015 3.18055e-015 4.37326e-015 -6.95746e-016 -6.36111e-015 -9.93923e-016 -7.95139e-015 -6.36111e-015 5.36719e-015 -2.88238e-015 -0 4.37326e-015 -6.95746e-016 -6.36111e-015 -9.93923e-016 -7.95139e-015 -6.36111e-015 5.36719e-015 -2.88238e-015 -0 -3.77691e-015 -1.88845e-015 3.18055e-015 4.37326e-015 -6.95746e-016 -6.36111e-015 -9.93923e-016 -7.95139e-015 -6.36111e-015 5.36719e-015 -2.88238e-015 -0 4.37326e-015 -6.95746e-016 -6.36111e-015 -9.93923e-016 -7.95139e-015 -6.36111e-015 5.36719e-015 -2.88238e-015 -0 5.37913 19.8749 27.1055 43.228 -7.61982 -49.3104 0.139635 -8.48227 61.5873 12.0636 -0.0260878 7.52012 -9.54166e-015 -7.55382e-015 6.36111e-015 -1.35174e-014 -4.37326e-015 -3.18055e-015 -7.55382e-015 -3.57812e-015 9.54166e-015 -3.18055e-015 2.38542e-015 3.18055e-015 -7.95139e-015 -1.59028e-014 6.36111e-015 -7.95139e-015 -1.19271e-014 3.18055e-015 -9.93923e-015 -1.98785e-014 -3.18055e-015 -7.95139e-015 -1.59028e-014 6.36111e-015 -7.95139e-015 -1.19271e-014 3.18055e-015 -9.93923e-015 -1.98785e-014 -3.18055e-015 -3.18055e-015 2.38542e-015 3.18055e-015 -7.95139e-015 -1.59028e-014 6.36111e-015 -7.95139e-015 -1.19271e-014 3.18055e-015 -9.93923e-015 -1.98785e-014 -3.18055e-015 -7.95139e-015 -1.59028e-014 6.36111e-015 -7.95139e-015 -1.19271e-014 3.18055e-015 -9.93923e-015 -1.98785e-014 -3.18055e-015 33.0994 -22.6745 57.3814 73.9994 46.4853 -99.2758 -17.2837 17.9859 36.9722 -33.9963 -22.1887 -56.928 -71.9667 46.4107 97.3014 18.0131 19.0479 -35.9415 
-38.1757 19.1303 22.1198 5.64009e-015 60.9968 180 -0.597551 3.61852 -0.0369998 -1.19635 7.23723 -0.0362051 -1.19635 7.23725 -0.0362044 -0.000130151 -26.5925 -6.15366e-005 -4.33793e-007 -20.0017 -2.32895e-007 -6.5517 20.1669 -26.4493 -42.5917 -7.11585 49.662 -1.06593 -6.99651 -62.7675 -12.3509 0.556195 -7.43607 3.97569e-015 2.98177e-015 9.54166e-015 5.96354e-015 -1.09332e-015 -0 1.59028e-015 5.86415e-015 3.18055e-015 2.38542e-015 1.78906e-015 6.36111e-015 -1.98785e-015 -2.38542e-015 -0 3.97569e-016 5.56597e-015 3.18055e-015 9.93923e-016 3.37934e-015 3.18055e-015 -1.98785e-015 -2.38542e-015 -0 3.97569e-016 5.56597e-015 3.18055e-015 9.93923e-016 3.37934e-015 3.18055e-015 2.38542e-015 1.78906e-015 6.36111e-015 -1.98785e-015 -2.38542e-015 -0 3.97569e-016 5.56597e-015 3.18055e-015 9.93923e-016 3.37934e-015 3.18055e-015 -1.98785e-015 -2.38542e-015 -0 3.97569e-016 5.56597e-015 3.18055e-015 9.93923e-016 3.37934e-015 3.18055e-015 5.63638 20.0517 26.7485 43.1078 -7.53707 -49.2323 0.139611 -8.48225 61.5873 12.2182 0.293758 7.38094 1.27222e-014 -1.74931e-014 -0 1.27222e-014 -1.31198e-014 -0 1.47101e-014 -2.18663e-014 -3.18055e-015 -2.20695e-032 3.97569e-016 3.18055e-015 1.78906e-014 -1.31198e-014 3.18055e-015 1.39149e-014 -1.47101e-014 -3.18055e-015 7.95139e-015 -2.14687e-014 -6.36111e-015 1.78906e-014 -1.31198e-014 3.18055e-015 1.39149e-014 -1.47101e-014 -3.18055e-015 7.95139e-015 -2.14687e-014 -6.36111e-015 -2.20695e-032 3.97569e-016 3.18055e-015 1.78906e-014 -1.31198e-014 3.18055e-015 1.39149e-014 -1.47101e-014 -3.18055e-015 7.95139e-015 -2.14687e-014 -6.36111e-015 1.78906e-014 -1.31198e-014 3.18055e-015 1.39149e-014 -1.47101e-014 -3.18055e-015 7.95139e-015 -2.14687e-014 -6.36111e-015 33.8112 -22.5815 58.7725 74.2471 46.1399 -100.657 -16.9094 18.1778 37.4194 -34.7057 -22.0932 -58.2767 -72.1921 46.1162 98.5389 17.5956 19.2638 -36.2438 
-38.1758 19.1298 22.1206 5.64009e-015 60.9968 180 -0.600602 3.52957 -0.0351061 -1.20246 7.0593 -0.0331544 -1.20247 7.05929 -0.0331542 -5.36821e-005 -25.905 -2.86563e-005 5.65757e-007 -20.0017 -2.1233e-007 -6.75968 20.3326 -26.1064 -42.4927 -7.04881 49.6012 -1.06594 -6.99651 -62.7675 -12.4999 0.863438 -7.28623 2.5842e-015 -4.37326e-015 6.36111e-015 1.78906e-015 0 3.18055e-015 4.96962e-015 -6.75868e-015 -0 9.93923e-016 -4.96962e-015 3.18055e-015 2.38542e-015 -3.97569e-016 9.54166e-015 1.98785e-015 -7.35503e-015 -0 -5.96354e-016 -2.98177e-015 -0 2.38542e-015 -3.97569e-016 9.54166e-015 1.98785e-015 -7.35503e-015 -0 -5.96354e-016 -2.98177e-015 -0 9.93923e-016 -4.96962e-015 3.18055e-015 2.38542e-015 -3.97569e-016 9.54166e-015 1.98785e-015 -7.35503e-015 -0 -5.96354e-016 -2.98177e-015 -0 2.38542e-015 -3.97569e-016 9.54166e-015 1.98785e-015 -7.35503e-015 -0 -5.96354e-016 -2.98177e-015 -0 5.89515 20.2269 26.3901 42.9876 -7.45448 -49.154 0.139602 -8.48226 61.5873 12.3736 0.613299 7.2409 -4.37326e-015 -5.1684e-015 3.18055e-015 -3.97569e-016 -2.78299e-015 6.36111e-015 -4.77083e-015 3.57812e-015 6.36111e-015 -3.18055e-015 7.95139e-016 -3.18055e-015 -1.19271e-015 -1.03368e-014 1.90833e-014 -3.97569e-015 -1.15295e-014 9.54166e-015 -3.18055e-015 -6.75868e-015 6.36111e-015 -1.19271e-015 -1.03368e-014 1.90833e-014 -3.97569e-015 -1.15295e-014 9.54166e-015 -3.18055e-015 -6.75868e-015 6.36111e-015 -3.18055e-015 7.95139e-016 -3.18055e-015 -1.19271e-015 -1.03368e-014 1.90833e-014 -3.97569e-015 -1.15295e-014 9.54166e-015 -3.18055e-015 -6.75868e-015 6.36111e-015 -1.19271e-015 -1.03368e-014 1.90833e-014 -3.97569e-015 -1.15295e-014 9.54166e-015 -3.18055e-015 -6.75868e-015 6.36111e-015 34.5211 -22.4719 60.1627 74.4829 45.7911 -102.031 -16.5355 18.3698 37.8653 -35.4132 -21.9818 -59.6247 -72.4084 45.8189 99.7716 17.1781 19.4798 -36.5443 
